# Blender v3.1.2 OBJ File: 'assets.blend'
# www.blender.org
mtllib arco 02.mtl
o Cube
v 2.618896 1.498615 0.305141
v 2.820270 0.048567 0.200192
v 1.037298 0.054268 0.200192
v 1.261425 0.086483 0.200192
v 2.654033 0.086483 0.200192
v 1.235273 0.318185 0.186701
v 1.222799 0.506847 0.202817
v 1.281740 0.707630 0.222527
v 1.460821 1.184730 0.259128
v 1.565209 1.361386 0.153718
v 1.695416 1.528726 0.218112
v 2.109650 1.589852 0.200192
v 2.424735 1.302062 0.337052
v 2.567779 1.199546 0.252106
v 2.522328 1.032809 0.233206
v 2.578073 0.709977 0.200192
v 2.623487 0.398230 0.175571
v 1.201183 1.139252 0.256722
v 2.106720 1.759530 0.186350
v 2.766685 1.101747 0.220177
v 1.043943 0.550497 0.202158
v 2.962657 1.100178 -0.477938
v 0.851390 0.600178 -0.477938
v 1.345802 0.946180 0.240828
v 1.098402 0.890538 0.233558
v 2.781085 0.568850 0.193935
v 2.962657 0.600178 -0.477938
v 0.876971 1.137988 0.254888
v 3.072897 0.586483 0.200406
v 3.039704 0.010779 0.200448
v 2.119949 2.008064 0.174945
v 2.597055 -0.005782 0.200242
v 0.769158 0.010797 0.200442
v 1.329664 0.001350 0.200235
v 1.347698 0.327281 0.186565
v 1.334047 0.488979 0.202697
v 1.391051 0.681117 0.222417
v 1.451195 0.908002 0.240718
v 1.562737 1.138854 0.259018
v 1.659546 1.302741 0.153601
v 1.731760 1.427537 0.217953
v 2.068379 1.490376 0.200019
v 2.350374 1.221673 0.336897
v 2.477708 1.135171 0.251944
v 2.410816 1.049128 0.233087
v 2.466429 0.694492 0.200057
v 2.511398 0.385966 0.175434
v 0.781500 0.871910 0.227636
v 2.866812 1.734587 0.278563
v 3.071467 1.103437 0.200413
v 0.736371 0.595350 0.200392
v 0.879555 1.151693 -0.423611
v 3.075481 0.600178 -0.478144
v 3.042419 0.024609 -0.478227
v 2.099027 2.022551 -0.503599
v 2.568355 0.033575 -0.477952
v 0.771652 0.024589 -0.478234
v 1.358730 0.042084 -0.477936
v 1.350276 0.341002 -0.491277
v 1.338121 0.516167 -0.475177
v 1.393009 0.692601 -0.455499
v 1.455733 0.926944 -0.437201
v 1.564730 1.151390 -0.418906
v 1.661711 1.315836 -0.524314
v 1.762240 1.454545 -0.459908
v 2.076722 1.522037 -0.441889
v 2.354580 1.234039 -0.340976
v 2.458897 1.229856 -0.425904
v 2.412318 1.039503 -0.444807
v 2.469112 0.707543 -0.477821
v 2.513979 0.399661 -0.502437
v 0.782688 0.880226 -0.450876
v 2.866810 1.750979 -0.400036
v 3.074976 1.110276 -0.478144
v 0.738760 0.606448 -0.478147
v 0.829664 1.155096 -0.082088
v 2.503331 0.689756 -0.139588
v 2.443492 1.050508 -0.104827
v 1.538272 1.155567 -0.077601
v 1.359016 0.675683 -0.116073
v 3.128746 1.117780 -0.139633
v 3.096985 -0.026298 -0.139599
v 2.619697 -0.030485 -0.139641
v 2.550624 0.365246 -0.165464
v 1.643714 1.334284 -0.188437
v 2.124037 2.067662 -0.166436
v 1.744951 1.476889 -0.120798
v 0.681670 0.584246 -0.139632
v 2.086665 1.530522 -0.139535
v 1.311817 -0.022971 -0.139631
v 0.714283 -0.026297 -0.139606
v 2.912235 1.783118 -0.057181
v 2.379303 1.248551 0.004386
v 1.313505 0.302127 -0.153728
v 2.498004 1.184691 -0.084906
v 1.300165 0.480795 -0.136823
v 0.729594 0.871868 -0.110881
v 3.129963 0.575674 -0.139579
v 1.425229 0.918921 -0.096804
v 0.982127 1.099464 0.352334
v 2.959374 0.584942 0.297828
v 2.959374 0.015139 0.297828
v 2.103557 1.900689 0.272345
v 0.889638 0.842203 0.325081
v 2.781486 1.662375 0.375940
v 2.959374 1.084942 0.297828
v 0.848107 0.025636 0.297828
v 0.848107 0.584942 0.297828
v 2.119248 2.006524 0.272581
v 0.768458 0.009256 0.298078
v 3.039004 0.009238 0.298084
v 0.876271 1.136448 0.352525
v 0.780800 0.870369 0.325273
v 0.735671 0.593809 0.298028
v 3.072197 0.584942 0.298043
v 3.070767 1.101896 0.298050
v 2.866112 1.733047 0.376199
v 1.294580 1.493096 0.168917
v 1.570233 1.646109 0.172030
v 1.454958 1.485872 0.150311
v 1.436013 1.527456 0.135506
v 1.533201 1.551246 -0.518241
v 1.348018 1.630058 -0.564779
v 1.472168 1.557591 -0.553181
v 1.481597 1.864011 0.157652
v 1.071130 1.567595 0.184906
v 1.338690 1.636726 0.122827
v 1.505067 1.892098 -0.520368
v 1.094717 1.603311 -0.495735
v 1.362794 1.667826 -0.556160
v 1.042444 1.621992 -0.158027
v 1.452462 1.917626 -0.184805
v 1.310199 1.690508 -0.219936
v 1.560438 1.783758 0.256172
v 1.160504 1.499640 0.281616
v 1.419760 1.561626 0.220570
v 1.072555 1.569308 0.281772
v 1.481995 1.862729 0.255322
v 1.338802 1.636352 0.220296
v 1.123676 1.151585 -0.421935
v 0.997120 0.895110 -0.446519
vt 0.237599 0.325811
vt 0.315270 0.326431
vt 0.310031 0.291376
vt 0.273841 0.295639
vt 0.083878 0.224688
vt 0.091036 0.262166
vt 0.110409 0.244811
vt 0.118288 0.110557
vt 0.087469 0.080272
vt 0.047508 0.160443
vt 0.074011 0.159868
vt 0.149749 0.056651
vt 0.134506 0.087925
vt 0.160706 0.094865
vt 0.233226 0.053901
vt 0.211296 0.085808
vt 0.145129 0.301792
vt 0.137774 0.261195
vt 0.025116 0.161214
vt 0.043950 0.246099
vt 0.065781 0.244297
vt 0.184224 0.317629
vt 0.212726 0.288758
vt 0.175273 0.278965
vt 0.244270 0.297780
vt 0.562947 0.026168
vt 0.576091 0.102353
vt 0.603544 0.104273
vt 0.484688 0.356665
vt 0.494110 0.270473
vt 0.464273 0.277743
vt 0.562950 0.356655
vt 0.546143 0.279400
vt 0.651636 0.294921
vt 0.594389 0.286449
vt 0.685397 0.191639
vt 0.670117 0.191216
vt 0.680321 0.263690
vt 0.695487 0.263549
vt 0.516712 0.048945
vt 0.511709 0.120722
vt 0.548431 0.110923
vt 0.272319 0.278049
vt 0.246969 0.280351
vt 0.695738 0.015293
vt 0.680458 0.014871
vt 0.679622 0.103736
vt 0.694901 0.104159
vt 0.323294 0.280623
vt 0.230183 0.026198
vt 0.151934 0.026617
vt 0.322309 0.368366
vt 0.213819 0.103270
vt 0.262150 0.095927
vt 0.260131 0.078393
vt 0.308805 0.073395
vt 0.323294 0.082236
vt 0.320312 0.012964
vt 0.314592 0.047343
vt 0.232042 0.356668
vt 0.319572 0.356199
vt 0.158251 0.112333
vt 0.737783 0.658494
vt 0.753055 0.659067
vt 0.744553 0.567534
vt 0.729281 0.566961
vt 0.061448 0.055089
vt 0.401941 0.104042
vt 0.476513 0.068728
vt 0.476500 0.030517
vt 0.405972 0.064301
vt 0.144660 0.101970
vt 0.875565 0.777819
vt 0.890785 0.776837
vt 0.898493 0.651614
vt 0.883274 0.652596
vt 0.340370 0.221529
vt 0.429178 0.168741
vt 0.414173 0.132967
vt 0.360826 0.128572
vt 0.130934 0.122128
vt 0.089615 0.166244
vt 0.650302 0.105573
vt 0.099682 0.218914
vt 0.382647 0.341573
vt 0.483107 0.374247
vt 0.119504 0.229995
vt 0.463428 0.261304
vt 0.418574 0.217947
vt 0.216780 0.271626
vt 0.181155 0.262435
vt 0.144864 0.245203
vt 0.562950 0.374316
vt 0.476538 0.137765
vt 0.690170 0.147957
vt 0.674890 0.147534
vt 0.151210 0.336222
vt 0.191649 0.350433
vt 0.821865 0.784199
vt 0.770131 0.788600
vt 0.777179 0.867087
vt 0.829948 0.872788
vt 0.680743 0.707210
vt 0.627675 0.712247
vt 0.624852 0.761761
vt 0.677852 0.761066
vt 0.826763 0.486741
vt 0.880033 0.482715
vt 0.876083 0.445099
vt 0.822607 0.447136
vt 0.679860 0.484774
vt 0.627061 0.484056
vt 0.623177 0.562348
vt 0.675728 0.567959
vt 0.676097 0.809667
vt 0.623177 0.807872
vt 0.629591 0.862286
vt 0.682924 0.868187
vt 0.891818 0.416371
vt 0.839126 0.415934
vt 0.088677 0.308508
vt 0.077850 0.322333
vt 0.145515 0.352823
vt 0.881162 0.392430
vt 0.827942 0.391392
vt 0.981697 0.444693
vt 0.988815 0.391392
vt 0.916070 0.395439
vt 0.908894 0.448822
vt 0.743215 0.146981
vt 0.796363 0.150417
vt 0.801093 0.107083
vt 0.748202 0.101403
vt 0.885756 0.330403
vt 0.938973 0.329431
vt 0.937954 0.283414
vt 0.890710 0.280029
vt 0.623177 0.938562
vt 0.630086 0.991462
vt 0.719375 0.991462
vt 0.714531 0.938646
vt 0.829950 0.652286
vt 0.777514 0.660461
vt 0.925002 0.230799
vt 0.871108 0.225046
vt 0.838962 0.634538
vt 0.891598 0.621276
vt 0.891818 0.575546
vt 0.839167 0.584481
vt 0.631619 0.655244
vt 0.684705 0.664428
vt 0.938973 0.215311
vt 0.886067 0.205439
vt 0.801947 0.018635
vt 0.749083 0.008538
vt 0.888186 0.549095
vt 0.835385 0.557532
vt 0.682869 0.684848
vt 0.629245 0.681504
vt 0.884170 0.520472
vt 0.831097 0.525963
vt 0.782327 0.557147
vt 0.778213 0.526049
vt 0.735910 0.690655
vt 0.733613 0.705987
vt 0.785884 0.581484
vt 0.819023 0.226236
vt 0.833441 0.204539
vt 0.785707 0.632154
vt 0.837641 0.279108
vt 0.630566 0.885263
vt 0.716671 0.885397
vt 0.832878 0.328408
vt 0.988815 0.497630
vt 0.921713 0.501489
vt 0.785870 0.422201
vt 0.775232 0.401241
vt 0.730951 0.759017
vt 0.729279 0.805223
vt 0.749116 0.271637
vt 0.801947 0.270889
vt 0.791578 0.194969
vt 0.738170 0.193433
vt 0.770131 0.450839
vt 0.735910 0.862646
vt 0.733211 0.487643
vt 0.774114 0.489514
vt 0.883286 0.861939
vt 0.898493 0.860813
vt 0.737783 0.398288
vt 0.684621 0.391392
vt 0.631612 0.394724
vt 0.050312 0.041903
vt 0.008538 0.158847
vt 0.187336 0.367493
vt 0.230753 0.374275
vt 0.322205 0.368653
vt 0.319356 0.025719
vt 0.320208 0.013250
vt 0.230083 0.008538
vt 0.031664 0.258443
vt 0.149182 0.009196
vt 0.817840 0.889864
vt 0.802581 0.917818
vt 0.802561 0.929473
vt 0.817840 0.929482
vt 0.864107 0.924691
vt 0.879386 0.924691
vt 0.879369 0.912309
vt 0.864177 0.889864
vt 0.748484 0.488216
vt 0.753055 0.398860
vt 0.413258 0.123459
vt 0.451034 0.153086
vt 0.653041 0.369129
vt 0.653041 0.013675
vt 0.561966 0.008538
vt 0.084597 0.265140
vt 0.396010 0.106344
vt 0.915569 0.720841
vt 0.954938 0.724389
vt 0.959576 0.670392
vt 0.920164 0.666893
vt 0.300943 0.735888
vt 0.266158 0.748182
vt 0.274223 0.802096
vt 0.308944 0.789769
vt 0.920638 0.773132
vt 0.959576 0.776807
vt 0.309189 0.683348
vt 0.274121 0.695367
vt 0.067341 0.280602
vt 0.078963 0.267868
vt 0.834916 0.896589
vt 0.834952 0.935375
vt 0.847031 0.911009
vt 0.847031 0.889864
vt 0.958841 0.655151
vt 0.919559 0.651614
vt 0.274536 0.817174
vt 0.309189 0.804974
vt 0.089981 0.287310
vt 0.519052 0.015384
vn 0.0454 0.0170 0.9988
vn -0.2364 -0.1833 0.9542
vn -0.1621 0.2052 0.9652
vn 0.2069 -0.2050 0.9566
vn 0.0912 -0.1367 0.9864
vn 0.0323 -0.0664 0.9973
vn 0.0579 0.3403 0.9385
vn 0.0860 -0.5161 0.8522
vn -0.0211 -0.0813 0.9965
vn -0.0257 -0.0902 0.9956
vn -0.0248 -0.0867 0.9959
vn 0.0217 0.0930 -0.9954
vn -0.0724 0.1161 -0.9906
vn -0.0301 0.0376 -0.9988
vn 0.0789 -0.0549 -0.9954
vn -0.9108 0.4128 0.0030
vn 0.0210 0.0853 -0.9961
vn 0.0235 0.1036 -0.9943
vn -0.0025 -0.0918 0.9958
vn -0.9984 -0.0560 -0.0080
vn 0.0211 0.0489 0.9986
vn -0.4394 -0.0289 0.8978
vn 0.0002 0.0020 1.0000
vn 0.0085 -0.0779 0.9969
vn -0.0003 0.0020 1.0000
vn -0.0398 0.0635 0.9972
vn 0.4486 -0.0045 0.8937
vn -0.0015 -0.0973 0.9953
vn 0.9516 0.3071 0.0117
vn -0.2836 -0.2498 0.9259
vn -0.1235 -0.1677 -0.9781
vn 0.0377 -0.1640 0.9857
vn 0.3417 0.9397 0.0173
vn 0.0939 -0.0819 -0.9922
vn 0.3087 -0.3525 0.8834
vn -0.2723 0.1734 0.9465
vn -0.0505 -0.0460 -0.9977
vn 0.0482 -0.0028 0.9988
vn -0.0123 0.1171 -0.9930
vn -0.2982 -0.3085 0.9033
vn -0.2720 -0.2240 0.9359
vn 0.1010 -0.1694 -0.9803
vn -0.0209 -0.0728 0.9971
vn 0.2221 0.4150 0.8823
vn -0.0018 -0.0000 -1.0000
vn 0.0107 0.0836 -0.9964
vn -0.0255 -0.0655 0.9975
vn -0.9412 0.3379 -0.0014
vn 0.0177 0.0822 -0.9965
vn -0.0180 -0.0946 0.9954
vn 0.4310 -0.2526 0.8663
vn -0.0023 -0.0838 0.9965
vn -0.0267 -0.0826 0.9962
vn -0.0693 0.0312 0.9971
vn -0.2121 0.9710 -0.1107
vn -0.9803 -0.1741 0.0928
vn 0.8963 -0.4375 0.0724
vn 0.9875 0.0016 -0.1578
vn -0.9827 -0.1522 0.1058
vn 0.8786 -0.4720 0.0734
vn 0.0754 0.1339 0.9881
vn -0.9843 -0.1508 0.0916
vn 0.7924 -0.6050 0.0780
vn -0.0050 -0.9860 -0.1667
vn -0.9732 0.1742 -0.1502
vn 0.1814 -0.9822 0.0493
vn 0.0174 -0.9859 -0.1662
vn 0.3503 0.9259 -0.1415
vn -0.7188 -0.6924 0.0631
vn 0.9920 0.0163 0.1253
vn 0.9338 0.3227 -0.1547
vn -0.3021 -0.9532 -0.0145
vn -0.9836 -0.0540 -0.1721
vn 0.9914 0.0606 0.1163
vn -0.9524 0.2832 0.1125
vn 0.9508 -0.2997 0.0778
vn 0.9568 -0.2773 -0.0875
vn -0.8729 0.4868 -0.0318
vn 0.9907 0.0886 -0.1035
vn -0.9852 -0.0539 0.1626
vn -0.5843 -0.8004 -0.1343
vn 0.9432 0.2854 0.1699
vn 0.9967 -0.0333 -0.0738
vn -0.6556 -0.7455 -0.1204
vn 0.3154 0.9332 0.1721
vn -0.0052 -0.9959 0.0905
vn 0.1616 -0.9793 -0.1217
vn -0.9776 0.1462 0.1512
vn 0.0224 -0.9954 0.0931
vn 0.8515 -0.5202 -0.0651
vn -0.9852 -0.1352 -0.1052
vn -0.9053 0.3978 -0.1491
vn 0.8324 -0.5471 -0.0883
vn -0.9775 -0.1969 -0.0757
vn 0.9862 0.0025 0.1658
vn 0.9008 -0.4259 -0.0848
vn -0.9837 -0.1493 -0.1003
vn -0.2205 0.9753 0.0137
vn 0.9639 -0.2523 -0.0848
vn -0.9366 0.3186 0.1456
vn -0.9289 0.3437 -0.1379
vn 0.9606 -0.2657 0.0814
vn 0.9840 -0.0553 0.1694
vn 0.9848 -0.0552 -0.1647
vn -0.1205 0.0657 0.9905
vn -0.0268 -0.0940 0.9952
vn 0.0023 0.0001 1.0000
vn -0.0024 0.0001 1.0000
vn -0.0270 -0.0059 0.9996
vn -0.0148 -0.0992 0.9950
vn -0.0019 -0.0000 1.0000
vn 0.0481 -0.1131 0.9924
vn 0.1696 -0.9854 0.0127
vn -0.0313 0.1908 0.9811
vn -0.9869 0.1615 -0.0045
vn -0.8919 0.4284 0.1447
vn -0.5365 -0.0144 0.8438
vn -0.1440 -0.9868 -0.0746
vn 0.9983 -0.0576 0.0062
vn 1.0000 0.0028 0.0072
vn 0.0435 -0.0847 -0.9955
vn -0.2203 0.9610 0.1672
vn 0.4192 -0.1552 0.8945
vn -0.0008 0.0004 -1.0000
vn 0.0007 0.0004 -1.0000
vn -0.3815 0.1509 0.9120
vn -0.1139 0.2632 -0.9580
vn 0.2613 0.0687 -0.9628
vn -0.8476 0.5087 0.1510
vn -0.2085 0.9633 0.1694
vn -0.8219 0.5444 -0.1678
vn -0.2611 0.9602 -0.0996
vn -0.0978 -0.0941 0.9907
vn 0.1743 0.2047 0.9632
vn 0.5214 -0.5573 0.6462
vn 0.3032 -0.8613 0.4078
vn -0.8463 0.5327 0.0067
vn -0.2482 0.9687 -0.0047
vn 0.5082 -0.0021 0.8612
vn 0.1235 0.3823 0.9158
vn -0.2828 0.0738 0.9563
vn 0.3698 0.2251 -0.9014
vn 0.1220 0.2086 0.9704
vn -0.2821 -0.3943 -0.8746
vn 0.0101 0.0935 -0.9956
vn 0.0064 -0.2888 -0.9574
vn 0.0113 0.0989 -0.9950
vn 0.0836 -0.1256 -0.9886
vn -0.5481 0.4636 -0.6961
vn -0.0747 0.1077 -0.9914
usemtl arcos
s off
f 21/1/1 3/2/1 4/3/1 6/4/1
f 11/5/2 120/6/2 10/7/2
f 13/8/3 1/9/3 19/10/3 12/11/3
f 20/12/4 1/9/4 13/8/4 14/13/4
f 20/12/5 14/13/5 15/14/5
f 26/15/6 20/12/6 15/14/6 16/16/6
f 120/6/7 18/17/7 9/18/7 10/7/7
f 19/10/8 103/19/8 134/20/8 119/21/8
f 25/22/9 21/1/9 8/23/9 24/24/9
f 8/23/10 21/1/10 7/25/10
f 7/25/11 21/1/11 6/4/11
f 23/26/12 60/27/12 59/28/12
f 22/29/13 69/30/13 68/31/13
f 22/29/14 27/32/14 70/33/14 69/30/14
f 27/32/15 56/34/15 71/35/15
f 28/36/16 112/37/16 137/38/16 126/39/16
f 23/26/17 141/40/17 62/41/17 61/42/17
f 23/26/18 61/42/18 60/27/18
f 6/4/19 35/43/19 36/44/19 7/25/19
f 33/45/20 110/46/20 114/47/20 51/48/20
f 4/3/21 34/49/21 35/43/21 6/4/21
f 26/15/22 101/50/22 106/51/22 20/12/22
f 3/2/23 33/52/23 34/49/23 4/3/23
f 16/16/24 46/53/24 47/54/24 17/55/24
f 5/56/25 32/57/25 30/58/25 2/59/25
f 17/55/26 47/54/26 32/57/26 5/56/26
f 21/1/27 108/60/27 107/61/27 3/2/27
f 15/14/28 45/62/28 46/53/28 16/16/28
f 49/63/29 117/64/29 116/65/29 50/66/29
f 20/12/30 106/51/30 105/67/30 1/9/30
f 123/68/31 140/69/31 52/70/31 129/71/31
f 14/13/32 44/72/32 45/62/32 15/14/32
f 31/73/33 109/74/33 117/75/33 49/76/33
f 55/77/34 65/78/34 122/79/34 128/80/34
f 13/8/35 43/81/35 44/72/35 14/13/35
f 12/11/36 42/82/36 43/81/36 13/8/36
f 58/83/37 23/26/37 59/28/37
f 11/5/38 41/84/38 42/82/38 12/11/38
f 22/29/39 73/85/39 74/86/39
f 1/9/40 105/67/40 103/19/40 19/10/40
f 10/7/41 40/87/41 41/84/41 11/5/41
f 55/77/42 73/85/42 67/88/42 66/89/42
f 8/23/43 37/90/43 38/91/43 24/24/43
f 9/18/44 39/92/44 40/87/44 10/7/44
f 22/29/45 74/86/45 53/93/45 27/32/45
f 141/40/46 140/69/46 63/94/46 62/41/46
f 24/24/47 38/91/47 39/92/47 9/18/47
f 48/95/48 113/96/48 112/37/48 28/36/48
f 71/35/49 70/33/49 27/32/49
f 7/25/50 36/44/50 37/90/50 8/23/50
f 18/17/51 100/97/51 104/98/51 25/22/51
f 18/17/52 25/22/52 24/24/52 9/18/52
f 26/15/53 16/16/53 17/55/53
f 2/59/54 26/15/54 17/55/54 5/56/54
f 86/99/55 55/100/55 128/101/55 132/102/55
f 78/103/56 69/104/56 70/105/56 77/106/56
f 99/107/57 62/108/57 63/109/57 79/110/57
f 98/111/58 53/112/58 74/113/58 81/114/58
f 84/115/59 71/116/59 56/117/59 83/118/59
f 79/110/60 63/109/60 64/119/60 85/120/60
f 135/121/61 137/122/61 112/123/61 100/97/61
f 77/106/62 70/105/62 71/116/62 84/115/62
f 85/120/63 64/119/63 65/124/63 87/125/63
f 83/126/64 56/127/64 54/128/64 82/129/64
f 97/130/65 72/131/65 75/132/65 88/133/65
f 87/134/66 65/135/66 66/136/66 89/137/66
f 91/138/67 57/139/67 58/140/67 90/141/67
f 92/142/68 73/143/68 55/100/68 86/99/68
f 89/137/69 66/136/69 67/144/69 93/145/69
f 90/146/70 58/147/70 59/148/70 94/149/70
f 81/114/71 74/113/71 73/150/71 92/151/71
f 93/145/72 67/144/72 68/152/72 95/153/72
f 88/133/73 75/132/73 57/154/73 91/155/73
f 94/149/74 59/148/74 60/156/74 96/157/74
f 95/158/75 68/159/75 69/104/75 78/103/75
f 96/157/76 60/156/76 61/160/76 80/161/76
f 36/162/77 96/157/77 80/161/77 37/163/77
f 44/164/78 95/158/78 78/103/78 45/165/78
f 35/166/79 94/149/79 96/157/79 36/162/79
f 51/48/80 88/133/80 91/155/80 33/45/80
f 43/167/81 93/145/81 95/153/81 44/168/81
f 50/66/82 81/114/82 92/151/82 49/63/82
f 34/169/83 90/146/83 94/149/83 35/166/83
f 42/170/84 89/137/84 93/145/84 43/167/84
f 49/76/85 92/142/85 86/99/85 31/73/85
f 33/171/86 91/138/86 90/141/86 34/172/86
f 41/173/87 87/134/87 89/137/87 42/170/87
f 48/95/88 97/130/88 88/133/88 51/48/88
f 32/174/89 83/126/89 82/129/89 30/175/89
f 40/176/90 85/120/90 87/125/90 41/177/90
f 46/178/91 77/106/91 84/115/91 47/179/91
f 131/180/92 129/181/92 52/182/92 76/183/92
f 39/184/93 79/110/93 85/120/93 40/176/93
f 47/179/94 84/115/94 83/118/94 32/185/94
f 29/186/95 98/111/95 81/114/95 50/66/95
f 38/187/96 99/107/96 79/110/96 39/184/96
f 45/165/97 78/103/97 77/106/97 46/178/97
f 125/188/98 138/189/98 109/74/98 31/73/98
f 37/163/99 80/161/99 99/107/99 38/187/99
f 28/36/100 76/183/100 97/130/100 48/95/100
f 76/183/101 52/182/101 72/131/101 97/130/101
f 80/161/102 61/160/102 62/108/102 99/107/102
f 30/190/103 82/191/103 98/111/103 29/186/103
f 82/191/104 54/192/104 53/112/104 98/111/104
f 105/67/105 117/193/105 109/194/105 103/19/105
f 100/97/106 112/123/106 113/195/106 104/98/106
f 108/60/107 114/196/107 110/197/107 107/61/107
f 102/198/108 111/199/108 115/200/108 101/50/108
f 103/19/109 109/194/109 138/201/109 134/20/109
f 104/98/110 113/195/110 114/196/110 108/60/110
f 101/50/111 115/200/111 116/202/111 106/51/111
f 106/51/112 116/202/112 117/193/112 105/67/112
f 3/203/113 107/204/113 110/205/113 33/206/113
f 12/11/114 19/10/114 119/21/114 11/5/114
f 51/48/115 114/47/115 113/96/115 48/95/115
f 126/39/116 131/180/116 76/183/116 28/36/116
f 2/59/117 102/198/117 101/50/117 26/15/117
f 30/207/118 111/208/118 102/209/118 2/210/118
f 29/186/119 115/211/119 111/212/119 30/190/119
f 50/66/120 116/65/120 115/211/120 29/186/120
f 124/213/121 64/214/121 123/68/121
f 31/73/122 86/99/122 132/102/122 125/188/122
f 25/22/123 104/98/123 108/60/123 21/1/123
f 53/93/124 54/215/124 56/34/124 27/32/124
f 57/216/125 75/217/125 23/26/125 58/83/125
f 121/218/126 120/6/126 119/21/126
f 129/71/127 130/219/127 124/213/127 123/68/127
f 130/219/128 128/80/128 122/79/128 124/213/128
f 132/220/129 133/221/129 127/222/129 125/223/129
f 133/224/130 131/225/130 126/226/130 127/227/130
f 128/228/131 130/229/131 133/221/131 132/220/131
f 130/230/132 129/231/132 131/225/132 133/224/132
f 138/201/133 139/232/133 136/233/133 134/20/133
f 139/232/134 137/122/134 135/121/134 136/233/134
f 134/20/135 136/233/135 121/218/135 119/21/135
f 136/234/136 135/235/136 118/236/136 121/237/136
f 125/223/137 127/222/137 139/238/137 138/239/137
f 127/227/138 126/226/138 137/240/138 139/241/138
f 118/242/139 135/121/139 100/97/139 18/17/139
f 118/242/140 120/6/140 121/218/140
f 11/5/141 119/21/141 120/6/141
f 122/79/142 65/78/142 64/214/142 124/213/142
f 118/242/143 18/17/143 120/6/143
f 64/214/144 63/94/144 123/68/144
f 72/243/145 52/70/145 140/69/145 141/40/145
f 63/94/146 140/69/146 123/68/146
f 75/217/147 72/243/147 141/40/147 23/26/147
f 66/89/148 65/78/148 55/77/148
f 67/88/149 73/85/149 68/31/149
f 68/31/150 73/85/150 22/29/150
