# Blender v3.1.2 OBJ File: 'assets.blend'
# www.blender.org
mtllib parede 03.mtl
o Cube.003_Cube.008
v 2.429338 0.058964 0.336274
v 2.429338 0.216590 0.336274
v 2.429338 0.058964 -0.349549
v 2.429338 0.216590 -0.349549
v 3.222895 0.058964 0.336274
v 3.222895 0.216590 0.336274
v 3.222895 0.058964 -0.349549
v 3.222895 0.216590 -0.349549
v 2.481190 0.205080 0.279963
v 2.481190 0.205080 -0.293237
v 3.171042 0.205080 0.279963
v 3.171042 0.205080 -0.293237
v 2.773971 0.336821 0.050440
v 2.773971 0.336821 -0.063715
v 2.878262 0.336821 0.050440
v 2.878262 0.336821 -0.063715
v 2.773971 1.300948 0.050440
v 2.773971 1.300948 -0.063715
v 2.878262 1.300948 -0.063715
v 2.878262 1.300948 0.050440
v 2.878262 0.956116 0.050440
v 2.773971 0.956116 0.050440
v 2.773971 0.956116 -0.063715
v 2.878262 0.956116 -0.063715
v 2.878262 1.059144 0.050440
v 2.773971 1.059144 -0.063715
v 2.773971 1.059144 0.050440
v 2.878262 1.059144 -0.063715
v 2.429338 0.137777 0.336274
v 2.429338 0.137777 -0.349549
v 3.222895 0.137777 -0.349549
v 3.222895 0.137777 0.336274
v 2.403862 0.058964 -0.375026
v 2.403862 0.058964 0.361751
v 2.403862 0.137777 -0.375026
v 3.248371 0.058964 -0.375026
v 3.248371 0.137777 -0.375026
v 3.248371 0.058964 0.361751
v 3.248371 0.137777 0.361751
v 2.403862 0.137777 0.361751
v 2.781861 0.646469 0.050440
v 2.886153 0.646469 -0.063715
v 2.886153 0.646469 0.050440
v 2.781861 0.646469 -0.063715
v 2.650681 0.336821 0.146569
v 2.538081 0.318822 0.232692
v 2.650681 0.336821 -0.159844
v 2.538081 0.318822 -0.245967
v 3.001552 0.336821 0.146569
v 3.114152 0.318822 0.232692
v 3.001552 0.336821 -0.159844
v 3.114152 0.318822 -0.245967
v 2.575258 1.059144 0.050440
v 2.575258 0.956116 0.050440
v 3.076970 1.059144 -0.063715
v 3.076970 0.956116 -0.063715
v 2.575258 0.956116 -0.063715
v 3.076970 0.956116 0.050440
v 3.076970 1.059144 0.050440
v 2.575258 1.059144 -0.063715
vt 0.971562 0.513031
vt 0.983227 0.513053
vt 0.983227 0.614595
vt 0.971562 0.614573
vt 0.922298 0.268004
vt 0.933973 0.268003
vt 0.933973 0.385585
vt 0.922298 0.385587
vt 0.978725 0.843751
vt 0.990360 0.843716
vt 0.990360 0.945275
vt 0.978725 0.945310
vt 0.922298 0.131138
vt 0.933975 0.131139
vt 0.933975 0.248723
vt 0.922298 0.248722
vt 0.739347 0.516845
vt 0.739347 0.634362
vt 0.637736 0.634312
vt 0.637736 0.516794
vt 0.075232 0.750434
vt 0.075232 0.632849
vt 0.176849 0.632851
vt 0.176849 0.750436
vt 0.088019 0.838384
vt 0.088019 0.786394
vt 0.133420 0.786395
vt 0.133420 0.838386
vt 0.957280 0.657416
vt 0.974793 0.664660
vt 0.974793 0.735541
vt 0.957280 0.742298
vt 0.975768 0.094507
vt 0.958539 0.087811
vt 0.958539 0.016942
vt 0.975768 0.009640
vt 0.847326 0.513062
vt 0.847326 0.615222
vt 0.762401 0.615179
vt 0.762401 0.513020
vt 0.920995 0.657416
vt 0.938001 0.665895
vt 0.938001 0.751251
vt 0.920995 0.759632
vt 0.823412 0.929308
vt 0.823412 0.946222
vt 0.838865 0.946222
vt 0.838865 0.929308
vt 0.493090 0.954173
vt 0.508534 0.954165
vt 0.508533 0.937252
vt 0.493090 0.937260
vt 0.771435 0.764026
vt 0.756721 0.759302
vt 0.745775 0.793409
vt 0.760489 0.798133
vt 0.661996 0.696250
vt 0.676710 0.691527
vt 0.665764 0.657416
vt 0.651050 0.662138
vt 0.691408 0.939192
vt 0.708309 0.939160
vt 0.708309 0.903370
vt 0.691408 0.903401
vt 0.794274 0.906312
vt 0.777370 0.906261
vt 0.777370 0.941959
vt 0.794274 0.942010
vt 0.942500 0.889530
vt 0.959405 0.889580
vt 0.959446 0.843766
vt 0.942542 0.843716
vt 0.935335 0.558840
vt 0.952236 0.558809
vt 0.952282 0.513031
vt 0.935381 0.513062
vt 0.679564 0.754824
vt 0.694279 0.750102
vt 0.681375 0.706062
vt 0.666660 0.710784
vt 0.789001 0.705460
vt 0.774288 0.700735
vt 0.761385 0.744769
vt 0.776098 0.749494
vt 0.743122 0.513074
vt 0.743122 0.638137
vt 0.180623 0.609795
vt 0.180623 0.492209
vt 0.184398 0.488434
vt 0.184398 0.613569
vt 0.079006 0.492207
vt 0.079006 0.609792
vt 0.075232 0.613566
vt 0.075232 0.488432
vt 0.633961 0.638083
vt 0.633961 0.513020
vt 0.177109 0.894851
vt 0.165433 0.894850
vt 0.165433 0.769715
vt 0.177109 0.769715
vt 0.964888 0.385551
vt 0.953252 0.385586
vt 0.953252 0.276481
vt 0.964888 0.276446
vt 0.890041 0.657418
vt 0.901716 0.657416
vt 0.901716 0.782548
vt 0.890041 0.782550
vt 0.953254 0.131137
vt 0.964919 0.131159
vt 0.964919 0.240245
vt 0.953254 0.240223
vt 0.804132 0.662140
vt 0.789418 0.657416
vt 0.694695 0.798149
vt 0.709410 0.793427
vt 0.935381 0.604727
vt 0.952282 0.604696
vt 0.942542 0.935144
vt 0.959446 0.935195
vt 0.075232 0.769715
vt 0.146154 0.769717
vt 0.075232 0.855075
vt 0.146153 0.855076
vt 0.939260 0.111858
vt 0.922298 0.103453
vt 0.922298 0.018094
vt 0.939260 0.009640
vt 0.633962 0.705248
vt 0.638625 0.719783
vt 0.878633 0.916166
vt 0.878633 0.945610
vt 0.895547 0.945610
vt 0.895547 0.916166
vt 0.308181 0.961490
vt 0.308181 0.944589
vt 0.292931 0.944560
vt 0.292931 0.961462
vt 0.441841 0.963638
vt 0.441841 0.946733
vt 0.426631 0.946779
vt 0.426631 0.963684
vt 0.575860 0.952558
vt 0.575860 0.923131
vt 0.558947 0.923122
vt 0.558947 0.952549
vt 0.799468 0.773027
vt 0.804132 0.758495
vt 0.733352 0.735768
vt 0.728688 0.750300
vt 0.182347 0.943574
vt 0.182347 0.914129
vt 0.165433 0.914129
vt 0.165433 0.943573
vt 0.595139 0.923122
vt 0.595139 0.952549
vt 0.612052 0.952558
vt 0.612052 0.923131
vt 0.709410 0.697063
vt 0.704746 0.682529
vn -1.0000 0.0000 0.0000
vn 0.0000 0.0000 -1.0000
vn 1.0000 0.0000 0.0000
vn 0.0000 0.0000 1.0000
vn 0.0000 -1.0000 0.0000
vn 0.0000 1.0000 0.0000
vn 0.8944 0.4473 0.0000
vn -0.8944 0.4473 0.0000
vn 0.0000 0.3838 -0.9234
vn -0.9997 -0.0255 0.0000
vn 0.9997 0.0255 0.0000
vn 0.9997 -0.0255 0.0000
vn -0.9997 0.0255 0.0000
vn -0.1578 0.9875 0.0000
vn 0.0000 0.9789 -0.2046
vn 0.1578 0.9875 0.0000
vn 0.0000 0.9789 0.2046
vn 0.0000 0.3838 0.9234
usemtl paredes
s off
f 29/1/1 2/2/1 4/3/1 30/4/1
f 30/5/2 4/6/2 8/7/2 31/8/2
f 31/9/3 8/10/3 6/11/3 32/12/3
f 32/13/4 6/14/4 2/15/4 29/16/4
f 3/17/5 7/18/5 5/19/5 1/20/5
f 8/21/6 4/22/6 2/23/6 6/24/6
f 51/25/6 47/26/6 45/27/6 49/28/6
f 12/29/7 52/30/7 50/31/7 11/32/7
f 9/33/8 46/34/8 48/35/8 10/36/8
f 10/37/5 12/38/5 11/39/5 9/40/5
f 10/41/9 48/42/9 52/43/9 12/44/9
f 16/45/5 15/46/5 13/47/5 14/48/5
f 19/49/6 18/50/6 17/51/6 20/52/6
f 27/53/4 25/54/4 20/55/4 17/56/4
f 28/57/2 26/58/2 18/59/2 19/60/2
f 25/61/3 28/62/3 19/63/3 20/64/3
f 26/65/1 27/66/1 17/67/1 18/68/1
f 44/69/10 41/70/10 22/71/10 23/72/10
f 43/73/11 42/74/11 24/75/11 21/76/11
f 42/77/2 44/78/2 23/79/2 24/80/2
f 41/81/4 43/82/4 21/83/4 22/84/4
f 24/80/2 23/79/2 26/58/2 28/57/2
f 22/84/4 21/83/4 25/54/4 27/53/4
f 7/18/5 3/17/5 33/85/5 36/86/5
f 32/87/6 29/88/6 40/89/6 39/90/6
f 30/91/6 31/92/6 37/93/6 35/94/6
f 1/20/5 5/19/5 38/95/5 34/96/5
f 38/97/4 39/98/4 40/99/4 34/100/4
f 36/101/3 37/102/3 39/103/3 38/104/3
f 33/105/2 35/106/2 37/107/2 36/108/2
f 34/109/1 40/110/1 35/111/1 33/112/1
f 3/17/5 1/20/5 34/96/5 33/85/5
f 29/88/6 30/91/6 35/94/6 40/89/6
f 31/92/6 32/87/6 39/90/6 37/93/6
f 5/19/5 7/18/5 36/86/5 38/95/5
f 13/113/4 15/114/4 43/82/4 41/81/4
f 16/115/2 14/116/2 44/78/2 42/77/2
f 15/117/12 16/118/12 42/74/12 43/73/12
f 14/119/13 13/120/13 41/70/13 44/69/13
f 45/27/14 47/26/14 48/121/14 46/122/14
f 47/26/15 51/25/15 52/123/15 48/121/15
f 51/25/16 49/28/16 50/124/16 52/123/16
f 49/28/17 45/27/17 46/122/17 50/124/17
f 11/125/18 50/126/18 46/127/18 9/128/18
f 28/57/2 55/129/2 56/130/2 24/80/2
f 24/131/5 56/132/5 58/133/5 21/134/5
f 55/135/3 59/136/3 58/137/3 56/138/3
f 53/139/1 60/140/1 57/141/1 54/142/1
f 26/143/6 60/144/6 53/145/6 27/146/6
f 27/53/4 53/147/4 54/148/4 22/84/4
f 21/83/4 58/149/4 59/150/4 25/54/4
f 22/151/5 54/152/5 57/153/5 23/154/5
f 25/155/6 59/156/6 55/157/6 28/158/6
f 23/79/2 57/159/2 60/160/2 26/58/2
