# Blender v3.1.2 OBJ File: 'assets.blend'
# www.blender.org
mtllib pedra 06.mtl
o Cube.002
v -1.197192 0.007455 0.246314
v -1.197450 0.076110 0.220973
v -1.152476 0.022730 0.188607
v -1.191190 0.076726 0.191419
v -1.296763 0.014200 0.125697
v -1.252922 0.062337 0.162746
v -1.262832 0.023175 0.112685
v -1.259795 0.068390 0.128005
v -1.172255 0.015335 0.171545
v -1.215508 0.067733 0.168185
v -1.218426 0.002675 0.225818
v -1.224601 0.085502 0.210829
v -1.228161 0.055018 0.155355
v -1.293038 0.003105 0.168838
v -1.239509 0.016666 0.111693
v -1.236490 0.074689 0.194221
v -1.188339 0.044985 0.246506
v -1.171121 0.049500 0.188329
v -1.259388 0.060846 0.117210
v -1.302177 0.065295 0.137228
v -1.224083 0.050960 0.235871
v -1.190503 0.057172 0.165458
v -1.257025 0.058568 0.196438
v -1.228165 0.046896 0.140751
v -1.174345 0.009532 0.220205
v -1.189039 0.082162 0.214078
v -1.286022 0.013813 0.116351
v -1.271695 0.078520 0.144272
v -1.217121 0.084821 0.188733
v -1.196464 0.004771 0.199315
v -1.230747 0.073789 0.182920
v -1.262848 0.003722 0.140938
v -1.281760 0.054521 0.122433
v -1.185775 0.050623 0.224795
v -1.156417 0.035529 0.189288
v -1.272874 0.047573 0.102856
v -1.303354 0.036150 0.124917
v -1.220560 0.028234 0.229988
v -1.176447 0.037870 0.170503
v -1.279210 0.033444 0.183017
v -1.242947 0.033399 0.117919
v -1.189354 0.024433 0.248598
v -1.173404 0.027650 0.223946
v -1.295478 0.040443 0.106873
vt 0.611193 0.396114
vt 0.620837 0.396730
vt 0.618948 0.389589
vt 0.613730 0.388283
vt 0.658773 0.391330
vt 0.658997 0.401582
vt 0.661109 0.400817
vt 0.661554 0.390003
vt 0.643534 0.388898
vt 0.637072 0.388283
vt 0.643534 0.399612
vt 0.641932 0.392252
vt 0.292204 0.462516
vt 0.293054 0.453257
vt 0.284871 0.457257
vt 0.282975 0.464483
vt 0.292029 0.408390
vt 0.302063 0.406896
vt 0.294528 0.399693
vt 0.291062 0.400303
vt 0.687644 0.390430
vt 0.682429 0.392691
vt 0.685331 0.399632
vt 0.687972 0.399343
vt 0.686393 0.388283
vt 0.683393 0.389075
vt 0.293535 0.437747
vt 0.302063 0.437363
vt 0.301371 0.430035
vt 0.292906 0.430188
vt 0.283276 0.709568
vt 0.291194 0.716588
vt 0.291194 0.706052
vt 0.285916 0.705869
vt 0.292831 0.686478
vt 0.291199 0.680559
vt 0.288053 0.674864
vt 0.285689 0.682192
vt 0.638078 0.405990
vt 0.642152 0.406667
vt 0.256192 0.825993
vt 0.252730 0.831035
vt 0.256192 0.839166
vt 0.256148 0.836532
vt 0.293658 0.669931
vt 0.291271 0.670908
vt 0.296062 0.683990
vt 0.297299 0.664855
vt 0.584579 0.405042
vt 0.581331 0.390503
vt 0.573872 0.388283
vt 0.576916 0.403697
vt 0.296512 0.689885
vt 0.296188 0.477901
vt 0.297447 0.461464
vt 0.289923 0.472435
vt 0.298154 0.452987
vt 0.584251 0.409471
vt 0.579601 0.406274
vt 0.293657 0.656960
vt 0.290277 0.661214
vt 0.612066 0.402040
vt 0.621491 0.400489
vt 0.605121 0.402471
vt 0.605818 0.397434
vt 0.533458 0.845988
vt 0.533239 0.851135
vt 0.536560 0.850096
vt 0.536560 0.844854
vt 0.283966 0.430718
vt 0.282975 0.408564
vt 0.666041 0.401582
vt 0.667189 0.388283
vt 0.284261 0.437280
vt 0.285872 0.672173
vt 0.283276 0.675920
vt 0.691658 0.388971
vt 0.691658 0.395854
vt 0.286882 0.404346
vt 0.514209 0.848727
vt 0.518000 0.852307
vt 0.518000 0.844854
vt 0.514826 0.846570
vt 0.611494 0.389587
vt 0.299560 0.659653
vt 0.301302 0.654204
vt 0.294855 0.651700
vt 0.605038 0.406482
vt 0.612779 0.406482
vt 0.621832 0.403726
vt 0.301634 0.665099
vt 0.589799 0.405533
vt 0.589566 0.403507
vt 0.303473 0.460614
vt 0.302422 0.454641
vt 0.303473 0.481271
vt 0.299742 0.690629
vt 0.301634 0.684778
vt 0.589799 0.392461
vn 0.9120 0.3816 0.1505
vn 0.6199 0.6722 -0.4048
vn -0.4191 0.8992 0.1255
vn -0.1172 0.5951 0.7950
vn -0.1958 -0.9554 -0.2211
vn 0.0713 0.9730 0.2194
vn -0.5023 0.8312 -0.2382
vn 0.1608 -0.9852 0.0588
vn -0.6726 0.5387 0.5073
vn 0.5143 0.6915 -0.5072
vn -0.2114 0.9738 0.0832
vn -0.7180 0.4395 0.5398
vn 0.0253 -0.9994 -0.0256
vn 0.1272 0.7607 -0.6365
vn 0.5083 0.4018 -0.7617
vn -0.8501 0.1231 0.5120
vn 0.6866 0.4978 -0.5299
vn -0.6878 -0.0244 0.7255
vn -0.4108 -0.1031 0.9059
vn -0.5592 0.5767 -0.5956
vn 0.6095 0.3467 -0.7129
vn 0.7445 0.5468 0.3831
vn 0.8842 0.2421 0.3993
vn -0.3395 0.8273 -0.4477
vn 0.1989 -0.9533 -0.2271
vn 0.5124 0.7850 -0.3482
vn 0.3562 -0.9295 -0.0955
vn -0.2687 0.7609 -0.5906
vn 0.3087 0.8418 -0.4427
vn -0.0063 -0.8236 -0.5671
vn -0.3041 0.7284 -0.6140
vn 0.7734 0.4249 0.4704
vn -0.0258 -0.3623 -0.9317
vn 0.7747 -0.2903 0.5618
vn 0.8610 0.0108 0.5084
vn 0.2551 -0.0011 -0.9669
vn -0.7453 -0.3641 -0.5585
vn -0.5968 -0.0416 0.8013
vn -0.6134 -0.1275 0.7794
vn 0.6523 0.1425 -0.7445
vn -0.9600 0.0630 0.2728
vn 0.6246 0.2203 -0.7492
usemtl pedra
s off
f 34/1/1 18/2/1 4/3/1 26/4/1
f 24/5/2 19/6/2 8/7/2 13/8/2
f 33/9/3 20/10/3 6/11/3 28/12/3
f 21/13/4 17/14/4 2/15/4 12/16/4
f 32/17/5 14/18/5 5/19/5 27/20/5
f 29/21/6 12/22/6 2/23/6 26/24/6
f 31/25/7 16/26/7 12/22/7 29/21/7
f 25/27/8 1/28/8 11/29/8 30/30/8
f 23/31/9 21/32/9 12/33/9 16/34/9
f 18/35/10 22/36/10 10/37/10 4/38/10
f 20/10/11 23/39/11 16/40/11 6/11/11
f 28/41/12 6/42/12 16/43/12 31/44/12
f 30/30/13 11/29/13 14/18/13 32/17/13
f 22/36/14 24/45/14 13/46/14 10/37/14
f 39/47/15 41/48/15 24/45/15 22/36/15
f 37/49/16 40/50/16 23/51/16 20/52/16
f 35/53/17 39/47/17 22/36/17 18/35/17
f 40/54/18 38/55/18 21/13/18 23/56/18
f 38/55/19 42/57/19 17/14/19 21/13/19
f 44/58/20 37/49/20 20/52/20 33/59/20
f 41/48/21 36/60/21 19/61/21 24/45/21
f 43/62/22 35/63/22 18/2/22 34/1/22
f 42/64/23 43/62/23 34/1/23 17/65/23
f 36/66/24 44/67/24 33/68/24 19/69/24
f 9/70/25 30/30/25 32/17/25 15/71/25
f 8/7/26 28/72/26 31/73/26 13/8/26
f 3/74/27 25/27/27 30/30/27 9/70/27
f 13/46/28 31/75/28 29/76/28 10/37/28
f 10/77/29 29/21/29 26/24/29 4/78/29
f 15/71/30 32/17/30 27/20/30 7/79/30
f 19/80/31 33/81/31 28/82/31 8/83/31
f 17/65/32 34/1/32 26/4/32 2/84/32
f 7/85/33 27/86/33 44/87/33 36/60/33
f 1/88/34 25/89/34 43/62/34 42/64/34
f 25/89/35 3/90/35 35/63/35 43/62/35
f 15/91/36 7/85/36 36/60/36 41/48/36
f 27/92/37 5/93/37 37/49/37 44/58/37
f 11/94/38 1/95/38 42/57/38 38/55/38
f 14/96/39 11/94/39 38/55/39 40/54/39
f 3/97/40 9/98/40 39/47/40 35/53/40
f 5/93/41 14/99/41 40/50/41 37/49/41
f 9/98/42 15/91/42 41/48/42 39/47/42
