# Blender v3.1.2 OBJ File: 'assets.blend'
# www.blender.org
mtllib pedra 05.mtl
o Cube.010
v -1.001135 0.008351 0.151610
v -0.995030 0.067582 0.173739
v -1.013238 0.019251 0.202247
v -0.990546 0.068918 0.195282
v -0.901081 0.013694 0.201029
v -0.938169 0.065284 0.195274
v -0.919564 0.021864 0.220441
v -0.927210 0.062087 0.215837
v -0.995385 0.014053 0.207565
v -0.967949 0.062704 0.203346
v -0.981317 0.004942 0.158690
v -0.974123 0.078451 0.173900
v -0.955747 0.052196 0.207160
v -0.916126 0.005447 0.173904
v -0.934276 0.016189 0.227360
v -0.955948 0.076192 0.178681
v -1.007195 0.036818 0.155039
v -1.001657 0.042536 0.199294
v -0.923974 0.054473 0.221723
v -0.901820 0.056067 0.195262
v -0.981462 0.045289 0.153800
v -0.982826 0.051292 0.210296
v -0.936785 0.066851 0.166482
v -0.951182 0.044547 0.215611
v -1.008311 0.009832 0.175287
v -0.998375 0.071250 0.180328
v -0.905325 0.013499 0.210302
v -0.923535 0.071629 0.202139
v -0.973190 0.077281 0.190771
v -0.987801 0.006439 0.182364
v -0.959750 0.072232 0.189244
v -0.927679 0.006798 0.201411
v -0.910819 0.048916 0.211172
v -1.002862 0.043427 0.171345
v -1.010988 0.029125 0.201064
v -0.910369 0.040740 0.224702
v -0.896815 0.031022 0.200536
v -0.981390 0.024765 0.156245
v -0.992739 0.032739 0.208472
v -0.926456 0.036149 0.170193
v -0.934341 0.031324 0.224093
v -1.006907 0.020504 0.152454
v -1.010065 0.023050 0.173299
v -0.896582 0.033745 0.214385
vt 0.292846 0.618792
vt 0.299712 0.619550
vt 0.299494 0.612714
vt 0.295657 0.612043
vt 0.295162 0.581055
vt 0.292868 0.574143
vt 0.290799 0.575156
vt 0.292993 0.582500
vt 0.869100 0.637432
vt 0.864425 0.637387
vt 0.867644 0.646070
vt 0.867589 0.642896
vt 0.806656 0.638991
vt 0.808468 0.632872
vt 0.800473 0.636938
vt 0.797989 0.641984
vt 0.838425 0.639171
vt 0.845727 0.638105
vt 0.840028 0.632765
vt 0.837557 0.633214
vt 0.869631 0.655071
vt 0.865879 0.656736
vt 0.868188 0.660335
vt 0.869884 0.660848
vt 0.868147 0.651841
vt 0.865277 0.652213
vt 0.839607 0.660037
vt 0.845727 0.659785
vt 0.845332 0.654642
vt 0.839255 0.654727
vt 0.801386 0.650496
vt 0.798561 0.646625
vt 0.295224 0.594040
vt 0.293429 0.588967
vt 0.290327 0.585602
vt 0.288588 0.591427
vt 0.860967 0.648229
vt 0.297929 0.591510
vt 0.298649 0.576634
vt 0.809509 0.662037
vt 0.808895 0.653147
vt 0.803481 0.660564
vt 0.298600 0.596277
vt 0.811616 0.639121
vt 0.812548 0.632765
vt 0.495514 0.851045
vt 0.498843 0.851218
vt 0.498969 0.844854
vt 0.494826 0.847061
vt 0.296286 0.570743
vt 0.292771 0.624013
vt 0.299657 0.623117
vt 0.287705 0.624127
vt 0.288616 0.620192
vt 0.872360 0.635531
vt 0.868920 0.632765
vt 0.872576 0.639917
vt 0.832626 0.654925
vt 0.831644 0.639070
vt 0.287942 0.574809
vt 0.287442 0.584169
vt 0.832688 0.659474
vt 0.872419 0.647782
vt 0.872410 0.651650
vt 0.872576 0.657742
vt 0.834094 0.635920
vt 0.871326 0.641757
vt 0.294069 0.612719
vt 0.300771 0.573215
vt 0.302384 0.570196
vt 0.297559 0.567838
vt 0.287442 0.626934
vt 0.293075 0.627245
vt 0.299712 0.625619
vt 0.302469 0.576525
vt 0.496500 0.855748
vt 0.498969 0.855421
vt 0.816405 0.639251
vt 0.815605 0.634082
vt 0.816405 0.655798
vt 0.301064 0.596804
vt 0.302469 0.592247
vt 0.813705 0.661016
vn -0.9431 0.2514 0.2175
vn -0.3867 0.5186 0.7626
vn 0.5562 0.8240 -0.1085
vn -0.2493 0.5569 -0.7923
vn 0.2504 -0.9583 0.1377
vn -0.3142 0.9401 -0.1324
vn 0.2010 0.9589 0.2003
vn -0.1707 -0.9852 0.0127
vn 0.0324 0.6104 -0.7914
vn -0.3885 0.4929 0.7785
vn 0.3296 0.9417 0.0671
vn 0.3743 0.8587 -0.3502
vn -0.0076 -0.9986 0.0529
vn 0.0718 0.6030 0.7945
vn -0.2102 0.1564 0.9651
vn 0.6828 0.0707 -0.7272
vn -0.5028 0.3014 0.8102
vn 0.2761 -0.0592 -0.9593
vn 0.0487 0.0043 -0.9988
vn 0.8293 0.4629 0.3131
vn -0.1970 0.1868 0.9625
vn -0.8992 0.4360 -0.0360
vn -0.9826 0.1854 -0.0146
vn 0.6197 0.6806 0.3907
vn -0.0752 -0.9523 0.2958
vn -0.3157 0.6913 0.6500
vn -0.2842 -0.9294 0.2353
vn 0.3482 0.6703 0.6553
vn -0.2236 0.7796 0.5850
vn 0.2413 -0.8083 0.5370
vn 0.6188 0.5840 0.5254
vn -0.9434 0.3159 -0.1011
vn 0.4094 -0.3660 0.8357
vn -0.9385 -0.2870 -0.1919
vn -0.9941 0.0065 -0.1081
vn 0.1907 -0.0798 0.9784
vn 0.9206 -0.3375 0.1966
vn 0.2333 -0.0061 -0.9724
vn 0.2417 -0.0682 -0.9679
vn -0.3292 0.0655 0.9420
vn 0.7874 0.0456 -0.6148
vn -0.2835 0.0883 0.9549
usemtl pedra
s off
f 34/1/1 18/2/1 4/3/1 26/4/1
f 24/5/2 19/6/2 8/7/2 13/8/2
f 33/9/3 20/10/3 6/11/3 28/12/3
f 21/13/4 17/14/4 2/15/4 12/16/4
f 32/17/5 14/18/5 5/19/5 27/20/5
f 29/21/6 12/22/6 2/23/6 26/24/6
f 31/25/7 16/26/7 12/22/7 29/21/7
f 25/27/8 1/28/8 11/29/8 30/30/8
f 23/31/9 21/13/9 12/16/9 16/32/9
f 18/33/10 22/34/10 10/35/10 4/36/10
f 20/10/11 23/37/11 16/26/11 6/11/11
f 28/12/12 6/11/12 16/26/12 31/25/12
f 30/30/13 11/29/13 14/18/13 32/17/13
f 22/34/14 24/5/14 13/8/14 10/35/14
f 39/38/15 41/39/15 24/5/15 22/34/15
f 37/40/16 40/41/16 23/31/16 20/42/16
f 35/43/17 39/38/17 22/34/17 18/33/17
f 40/41/18 38/44/18 21/13/18 23/31/18
f 38/44/19 42/45/19 17/14/19 21/13/19
f 44/46/20 37/47/20 20/48/20 33/49/20
f 41/39/21 36/50/21 19/6/21 24/5/21
f 43/51/22 35/52/22 18/2/22 34/1/22
f 42/53/23 43/51/23 34/1/23 17/54/23
f 36/55/24 44/56/24 33/9/24 19/57/24
f 9/58/25 30/30/25 32/17/25 15/59/25
f 8/7/26 28/60/26 31/61/26 13/8/26
f 3/62/27 25/27/27 30/30/27 9/58/27
f 13/63/28 31/25/28 29/21/28 10/64/28
f 10/64/29 29/21/29 26/24/29 4/65/29
f 15/59/30 32/17/30 27/20/30 7/66/30
f 19/57/31 33/9/31 28/12/31 8/67/31
f 17/54/32 34/1/32 26/4/32 2/68/32
f 7/69/33 27/70/33 44/71/33 36/50/33
f 1/72/34 25/73/34 43/51/34 42/53/34
f 25/73/35 3/74/35 35/52/35 43/51/35
f 15/75/36 7/69/36 36/50/36 41/39/36
f 27/76/37 5/77/37 37/47/37 44/46/37
f 11/78/38 1/79/38 42/45/38 38/44/38
f 14/80/39 11/78/39 38/44/39 40/41/39
f 3/81/40 9/82/40 39/38/40 35/43/40
f 5/83/41 14/80/41 40/41/41 37/40/41
f 9/82/42 15/75/42 41/39/42 39/38/42
