# Blender v3.1.2 OBJ File: 'assets.blend'
# www.blender.org
mtllib pedra 03.mtl
o Cube.008_Cube.007
v -0.233061 0.009230 -0.420407
v -0.143425 0.388383 -0.281244
v -0.212353 0.078486 0.006054
v -0.154382 0.394077 -0.114643
v 0.375664 0.050536 -0.286882
v 0.246485 0.431837 -0.305336
v 0.305165 0.094475 -0.084287
v 0.254105 0.392062 -0.131803
v -0.110466 0.047461 0.003318
v -0.033403 0.453218 -0.139500
v -0.118018 -0.011119 -0.414235
v -0.053125 0.434074 -0.315007
v 0.057984 0.415579 -0.126203
v 0.247060 -0.003919 -0.457141
v 0.231221 0.060758 0.020325
v 0.048511 0.467093 -0.321832
v -0.258979 0.183360 -0.378508
v -0.192798 0.196377 -0.023649
v 0.343135 0.349706 -0.063287
v 0.357280 0.298547 -0.325753
v -0.126865 0.233926 -0.452154
v -0.079875 0.270557 0.004366
v 0.127059 0.362641 -0.463900
v 0.171055 0.235132 0.037695
v -0.231283 0.018072 -0.217235
v -0.171137 0.388901 -0.202463
v 0.363616 0.044151 -0.199058
v 0.255164 0.391166 -0.217713
v -0.041368 0.456963 -0.201213
v -0.112639 -0.002182 -0.212804
v 0.052929 0.476297 -0.235749
v 0.232349 0.004150 -0.213107
v 0.395873 0.315908 -0.178601
v -0.245115 0.201928 -0.239636
v -0.202575 0.137432 -0.008798
v 0.360366 0.207074 -0.073787
v 0.402687 0.159525 -0.306317
v -0.122441 0.111404 -0.433194
v -0.095171 0.159009 0.003842
v 0.187059 0.179361 -0.460521
v 0.201138 0.147945 0.029010
v -0.261756 0.085970 -0.399457
v -0.243720 0.101167 -0.228436
v 0.415960 0.165013 -0.188829
vt 0.615383 0.928783
vt 0.561206 0.923507
vt 0.578158 0.975082
vt 0.600222 0.975527
vt 0.974901 0.268934
vt 0.930617 0.253314
vt 0.924785 0.282405
vt 0.947741 0.324790
vt 0.900249 0.250707
vt 0.872925 0.271731
vt 0.886842 0.304691
vt 0.905935 0.290593
vt 0.663424 0.944862
vt 0.650146 0.927273
vt 0.618743 0.978041
vt 0.623524 0.992380
vt 0.797891 0.287587
vt 0.857686 0.279184
vt 0.812227 0.250707
vt 0.791039 0.255419
vt 0.941688 0.356586
vt 0.918725 0.368233
vt 0.937427 0.379619
vt 0.957759 0.377652
vt 0.922981 0.342090
vt 0.904911 0.350693
vt 0.807586 0.401703
vt 0.857686 0.398168
vt 0.854380 0.369996
vt 0.804636 0.372610
vt 0.349512 0.824730
vt 0.380412 0.765223
vt 0.327073 0.789574
vt 0.319307 0.813388
vt 0.201773 0.910897
vt 0.180932 0.884327
vt 0.130421 0.884626
vt 0.149572 0.911101
vt 0.361087 0.888428
vt 0.327643 0.862132
vt 0.182329 0.821278
vt 0.136975 0.860950
vt 0.208510 0.885067
vt 0.202232 0.812092
vt 0.394598 0.901350
vt 0.394398 0.840514
vt 0.216888 0.910999
vt 0.409848 0.768165
vt 0.414857 0.736802
vt 0.390321 0.738055
vt 0.497460 0.763811
vt 0.495452 0.736802
vt 0.460192 0.738379
vt 0.460439 0.770941
vt 0.179322 0.779984
vt 0.145587 0.787463
vt 0.614770 0.903899
vt 0.559110 0.908472
vt 0.657443 0.903890
vt 0.489470 0.795748
vt 0.454524 0.802564
vt 0.750471 0.376198
vt 0.739391 0.292311
vt 0.751106 0.401276
vt 0.954340 0.348496
vt 0.974901 0.365948
vt 0.762914 0.271949
vt 0.516041 0.794535
vt 0.526104 0.762286
vt 0.663424 0.886374
vt 0.613472 0.883622
vt 0.557013 0.893438
vt 0.526104 0.823578
vt 0.504531 0.829614
vt 0.522337 0.740830
vt 0.439284 0.771106
vt 0.434366 0.742979
vt 0.439284 0.856299
vt 0.232002 0.911101
vt 0.236089 0.885808
vt 0.420667 0.896676
vt 0.222136 0.802906
vn -0.9297 0.3013 0.2117
vn 0.0176 0.7294 0.6839
vn 0.6397 0.7668 -0.0527
vn -0.5434 0.5959 -0.5912
vn 0.3221 -0.9462 0.0308
vn -0.4711 0.8701 -0.1448
vn -0.2815 0.9507 -0.1299
vn -0.1730 -0.9838 0.0463
vn -0.3259 0.6360 -0.6995
vn -0.3230 0.5484 0.7714
vn 0.3793 0.7087 -0.5949
vn 0.2727 0.9501 0.1515
vn 0.0214 -0.9990 0.0386
vn 0.0353 0.6499 0.7592
vn -0.1107 -0.0542 0.9924
vn 0.5604 0.1253 -0.8187
vn -0.2283 0.1148 0.9668
vn -0.0407 -0.0813 -0.9959
vn -0.3692 0.0056 -0.9293
vn 0.9560 0.2094 -0.2054
vn 0.5108 0.0335 0.8590
vn -0.9755 0.0844 0.2033
vn -0.9948 0.0019 0.1022
vn 0.9123 0.0877 0.4001
vn 0.0222 -0.9730 0.2299
vn 0.2445 0.9286 0.2792
vn -0.2213 -0.9434 0.2469
vn 0.1307 0.9311 0.3405
vn -0.4466 0.8924 0.0653
vn 0.4451 -0.8318 0.3316
vn 0.4659 0.8844 -0.0279
vn -0.8827 0.4599 -0.0965
vn 0.7509 -0.3930 0.5307
vn -0.9653 -0.2525 0.0673
vn -0.9911 0.0059 0.1331
vn 0.6903 -0.1547 0.7068
vn 0.9451 -0.3266 -0.0071
vn -0.1076 -0.0080 -0.9942
vn -0.0930 -0.0920 -0.9914
vn -0.0430 0.0899 0.9950
vn 0.6847 0.0204 -0.7286
vn -0.0657 -0.0511 0.9965
usemtl pedra
s off
f 34/1/1 18/2/1 4/3/1 26/4/1
f 24/5/2 19/6/2 8/7/2 13/8/2
f 33/9/3 20/10/3 6/11/3 28/12/3
f 21/13/4 17/14/4 2/15/4 12/16/4
f 32/17/5 14/18/5 5/19/5 27/20/5
f 29/21/6 12/22/6 2/23/6 26/24/6
f 31/25/7 16/26/7 12/22/7 29/21/7
f 25/27/8 1/28/8 11/29/8 30/30/8
f 23/31/9 21/32/9 12/33/9 16/34/9
f 18/35/10 22/36/10 10/37/10 4/38/10
f 20/39/11 23/31/11 16/34/11 6/40/11
f 28/12/12 6/11/12 16/26/12 31/25/12
f 30/30/13 11/29/13 14/18/13 32/17/13
f 22/36/14 24/41/14 13/42/14 10/37/14
f 39/43/15 41/44/15 24/41/15 22/36/15
f 37/45/16 40/46/16 23/31/16 20/39/16
f 35/47/17 39/43/17 22/36/17 18/35/17
f 40/46/18 38/48/18 21/32/18 23/31/18
f 38/48/19 42/49/19 17/50/19 21/32/19
f 44/51/20 37/52/20 20/53/20 33/54/20
f 41/44/21 36/55/21 19/56/21 24/41/21
f 43/57/22 35/58/22 18/2/22 34/1/22
f 42/59/23 43/57/23 34/1/23 17/14/23
f 36/60/24 44/51/24 33/54/24 19/61/24
f 9/62/25 30/30/25 32/17/25 15/63/25
f 8/7/26 28/12/26 31/25/26 13/8/26
f 3/64/27 25/27/27 30/30/27 9/62/27
f 13/8/28 31/25/28 29/21/28 10/65/28
f 10/65/29 29/21/29 26/24/29 4/66/29
f 15/63/30 32/17/30 27/20/30 7/67/30
f 19/6/31 33/9/31 28/12/31 8/7/31
f 17/14/32 34/1/32 26/4/32 2/15/32
f 7/68/33 27/69/33 44/51/33 36/60/33
f 1/70/34 25/71/34 43/57/34 42/59/34
f 25/71/35 3/72/35 35/58/35 43/57/35
f 15/73/36 7/68/36 36/60/36 41/74/36
f 27/69/37 5/75/37 37/52/37 44/51/37
f 11/76/38 1/77/38 42/49/38 38/48/38
f 14/78/39 11/76/39 38/48/39 40/46/39
f 3/79/40 9/80/40 39/43/40 35/47/40
f 5/81/41 14/78/41 40/46/41 37/45/41
f 9/80/42 15/82/42 41/44/42 39/43/42
