# Blender v3.1.2 OBJ File: 'assets.blend'
# www.blender.org
mtllib pedra 01.mtl
o Cube.006_Cube.005
v 1.767123 0.099810 -0.657373
v 1.920228 0.817020 -0.296684
v 1.840781 0.060525 0.240834
v 1.920228 0.817020 -0.119856
v 2.954601 0.127568 -0.522548
v 2.563970 1.543299 -0.296684
v 2.800753 0.061684 0.065936
v 2.592219 1.298214 -0.071765
v 2.003237 -0.008224 0.240834
v 2.030175 0.925550 -0.153007
v 2.003237 -0.008224 -0.657373
v 2.030175 0.925550 -0.329835
v 2.349488 1.220964 -0.153007
v 2.545594 -0.008224 -0.657373
v 2.548050 0.021240 0.240834
v 2.274912 1.472659 -0.292874
v 1.715474 0.418068 -0.458733
v 1.879980 0.366506 0.041029
v 2.873757 0.755701 0.041029
v 2.841903 0.529768 -0.288132
v 1.988635 0.468522 -0.474144
v 1.988635 0.468522 0.025618
v 2.393530 0.753782 -0.474144
v 2.393530 0.753782 0.025618
v 1.803952 0.080167 -0.208270
v 1.920228 0.817020 -0.208270
v 2.917746 0.059672 -0.228306
v 2.578094 1.420756 -0.184224
v 2.030175 0.925550 -0.241421
v 2.003237 -0.008224 -0.208270
v 2.302346 1.380068 -0.241421
v 2.546823 0.006508 -0.208270
v 2.857830 0.642734 -0.123551
v 1.797727 0.392287 -0.208852
vt 0.137684 0.499377
vt 0.075386 0.512663
vt 0.143879 0.609559
vt 0.164817 0.603703
vt 0.436791 0.206393
vt 0.319307 0.212394
vt 0.396083 0.345374
vt 0.458169 0.326343
vt 0.652941 0.225985
vt 0.684300 0.260276
vt 0.724152 0.007620
vt 0.692138 0.032299
vt 0.090155 0.157465
vt 0.024834 0.161572
vt 0.103693 0.247988
vt 0.132875 0.267011
vt 0.430861 0.619796
vt 0.319948 0.620125
vt 0.356523 0.721563
vt 0.427496 0.711719
vt 0.178350 0.630844
vt 0.199288 0.624988
vt 0.185755 0.597847
vt 0.205226 0.747268
vt 0.224241 0.764744
vt 0.431550 0.436505
vt 0.321327 0.428178
vt 0.319307 0.486085
vt 0.429905 0.485392
vt 0.199418 0.202195
vt 0.220828 0.384453
vt 0.558633 0.104745
vt 0.533506 0.131590
vt 0.534001 0.250145
vt 0.558633 0.221056
vt 0.304067 0.125553
vt 0.291647 0.384453
vt 0.405159 0.379156
vt 0.414234 0.412938
vt 0.483948 0.391886
vt 0.474465 0.367775
vt 0.517644 0.007620
vt 0.385288 0.021719
vt 0.294425 0.018605
vt 0.183427 0.007620
vt 0.557596 0.022353
vt 0.057014 0.039253
vt 0.007620 0.078909
vt 0.649556 0.373044
vt 0.724152 0.371727
vt 0.331642 0.041068
vt 0.115931 0.426068
vt 0.007620 0.452444
vt 0.224241 0.399693
vt 0.199982 0.486090
vt 0.573872 0.354826
vt 0.621582 0.191693
vt 0.540503 0.484698
vt 0.541773 0.619467
vt 0.541773 0.444833
vt 0.537831 0.253313
vt 0.157412 0.636700
vt 0.499862 0.682359
vt 0.660124 0.056978
vn -0.9438 0.2206 0.2463
vn -0.1535 0.2280 0.9615
vn 0.9517 0.2926 -0.0931
vn -0.2744 0.3931 -0.8776
vn 0.2431 -0.9683 -0.0576
vn -0.7025 0.7117 0.0000
vn -0.8105 0.4026 0.4255
vn -0.4112 -0.9115 -0.0031
vn -0.2571 0.2422 -0.9356
vn -0.1397 0.3580 0.9232
vn 0.2674 0.1560 -0.9509
vn -0.1882 0.5720 0.7984
vn 0.0136 -0.9998 0.0164
vn -0.2772 0.3458 0.8964
vn -0.1061 0.3202 0.9414
vn 0.3579 0.3863 -0.8501
vn -0.0073 0.4686 0.8834
vn -0.0821 0.2725 -0.9586
vn 0.0219 0.4344 -0.9005
vn 0.9862 0.1628 0.0290
vn 0.1998 0.1737 0.9643
vn -0.9788 0.1086 0.1738
vn -0.9777 -0.1392 0.1575
vn 0.9750 -0.0238 0.2207
vn 0.0406 -0.9990 0.0163
vn -0.3278 0.5003 0.8014
vn -0.3984 -0.9172 -0.0037
vn -0.6232 0.4915 0.6084
vn 0.1628 -0.9855 0.0476
vn 0.9209 0.3800 -0.0868
vn -0.9163 0.3153 0.2468
usemtl pedra
s off
f 34/1/1 18/2/1 4/3/1 26/4/1
f 24/5/2 19/6/2 8/7/2 13/8/2
f 33/9/3 20/10/3 6/11/3 28/12/3
f 21/13/4 17/14/4 2/15/4 12/16/4
f 32/17/5 14/18/5 5/19/5 27/20/5
f 29/21/6 12/22/6 2/23/6 26/4/6
f 31/24/7 16/25/7 12/22/7 29/21/7
f 25/26/8 1/27/8 11/28/8 30/29/8
f 23/30/9 21/13/9 12/16/9 16/31/9
f 18/32/10 22/33/10 10/34/10 4/35/10
f 20/36/11 23/30/11 16/31/11 6/37/11
f 28/38/12 6/39/12 16/40/12 31/41/12
f 30/29/13 11/28/13 14/18/13 32/17/13
f 22/33/14 24/5/14 13/8/14 10/34/14
f 9/42/15 15/43/15 24/5/15 22/33/15
f 5/44/16 14/45/16 23/30/16 20/36/16
f 3/46/17 9/42/17 22/33/17 18/32/17
f 14/45/18 11/47/18 21/13/18 23/30/18
f 11/47/19 1/48/19 17/14/19 21/13/19
f 27/49/20 5/50/20 20/10/20 33/9/20
f 15/43/21 7/51/21 19/6/21 24/5/21
f 25/52/22 3/53/22 18/2/22 34/1/22
f 1/54/23 25/52/23 34/1/23 17/55/23
f 7/56/24 27/49/24 33/9/24 19/57/24
f 9/58/25 30/29/25 32/17/25 15/59/25
f 8/7/26 28/38/26 31/41/26 13/8/26
f 3/60/27 25/26/27 30/29/27 9/58/27
f 13/8/28 31/41/28 29/61/28 10/34/28
f 10/62/6 29/21/6 26/4/6 4/3/6
f 15/59/29 32/17/29 27/20/29 7/63/29
f 19/57/30 33/9/30 28/12/30 8/64/30
f 17/55/31 34/1/31 26/4/31 2/23/31
