# Blender v3.1.2 OBJ File: 'assets.blend'
# www.blender.org
mtllib pedra 04.mtl
o Cube.009
v -0.770690 0.003341 0.216194
v -0.731802 0.117066 0.236941
v -0.716168 0.024268 0.299980
v -0.695874 0.119632 0.259172
v -0.569619 0.013600 0.142172
v -0.626655 0.112655 0.186218
v -0.567014 0.029287 0.193573
v -0.583532 0.106517 0.198134
v -0.685163 0.014290 0.282146
v -0.654775 0.107701 0.238359
v -0.734637 -0.003204 0.197953
v -0.703943 0.137935 0.208038
v -0.633335 0.087526 0.226408
v -0.627280 -0.002236 0.127273
v -0.576824 0.018390 0.223206
v -0.673263 0.133598 0.189045
v -0.773925 0.058000 0.229165
v -0.704973 0.068978 0.279948
v -0.571059 0.091898 0.201408
v -0.578627 0.094957 0.135581
v -0.741637 0.074264 0.191690
v -0.664761 0.085789 0.268265
v -0.664924 0.115663 0.146235
v -0.615532 0.072839 0.231221
v -0.747201 0.006185 0.257482
v -0.727047 0.124109 0.250309
v -0.562314 0.013225 0.160341
v -0.597751 0.124838 0.174910
v -0.679215 0.135690 0.229038
v -0.710237 -0.000330 0.238274
v -0.663578 0.125995 0.208302
v -0.604244 0.000359 0.179721
v -0.568364 0.081228 0.169141
v -0.745489 0.070689 0.244684
v -0.714840 0.043228 0.295282
v -0.548926 0.065529 0.186399
v -0.564667 0.046871 0.135580
v -0.738137 0.034856 0.194822
v -0.680403 0.050168 0.279660
v -0.646102 0.056714 0.136754
v -0.581460 0.047451 0.218979
v -0.777144 0.026675 0.225348
v -0.752288 0.031564 0.257298
v -0.545071 0.052099 0.153560
vt 0.290851 0.845755
vt 0.290246 0.834316
vt 0.277019 0.835376
vt 0.277250 0.843432
vt 0.258242 0.781991
vt 0.258242 0.770676
vt 0.253491 0.771431
vt 0.252730 0.783879
vt 0.455949 0.885185
vt 0.463913 0.890001
vt 0.466711 0.872841
vt 0.464350 0.879581
vt 0.779539 0.647460
vt 0.773990 0.639406
vt 0.764760 0.652414
vt 0.768086 0.660530
vt 0.290049 0.748861
vt 0.304067 0.746848
vt 0.293113 0.736803
vt 0.288371 0.737632
vt 0.471941 0.856472
vt 0.479586 0.856585
vt 0.478403 0.846632
vt 0.476268 0.844854
vt 0.471284 0.862857
vt 0.476502 0.865022
vt 0.292317 0.789047
vt 0.304067 0.788580
vt 0.303312 0.778585
vt 0.291645 0.778736
vt 0.782749 0.662637
vt 0.771686 0.662020
vt 0.283855 0.826033
vt 0.277230 0.826060
vt 0.479586 0.874440
vt 0.459071 0.851134
vt 0.454524 0.865907
vt 0.459737 0.864061
vt 0.463667 0.858465
vt 0.258242 0.755200
vt 0.251364 0.735183
vt 0.247362 0.742800
vt 0.248929 0.755436
vt 0.254379 0.697040
vt 0.253759 0.677324
vt 0.239481 0.671552
vt 0.242989 0.692245
vt 0.297369 0.834796
vt 0.293527 0.827647
vt 0.258969 0.659124
vt 0.249575 0.656924
vt 0.782749 0.638386
vt 0.778153 0.632765
vt 0.711564 0.399422
vt 0.714468 0.400442
vt 0.714468 0.388283
vt 0.706897 0.391488
vt 0.243530 0.727903
vt 0.239481 0.735391
vt 0.300958 0.845048
vt 0.302460 0.852304
vt 0.294880 0.852727
vt 0.259042 0.803217
vt 0.252887 0.799118
vt 0.252730 0.807099
vt 0.259042 0.810753
vt 0.278909 0.779296
vt 0.277019 0.748905
vt 0.456763 0.877345
vt 0.279021 0.788204
vt 0.469036 0.848062
vt 0.281712 0.743069
vt 0.296890 0.542084
vt 0.303721 0.546707
vt 0.303721 0.534929
vt 0.297935 0.538359
vt 0.768254 0.641040
vt 0.760902 0.652655
vt 0.252556 0.726872
vt 0.252548 0.717786
vt 0.242986 0.719236
vt 0.298783 0.496511
vt 0.296890 0.507162
vt 0.302773 0.508741
vt 0.303473 0.500094
vt 0.298643 0.519414
vt 0.303473 0.519689
vt 0.258242 0.732714
vt 0.261591 0.699967
vt 0.262340 0.697221
vt 0.251999 0.702547
vt 0.268036 0.661284
vt 0.266569 0.653452
vt 0.260694 0.651700
vt 0.268036 0.683096
vt 0.302127 0.834054
vt 0.302460 0.827085
vt 0.294355 0.804287
vt 0.287481 0.806872
vn -0.4915 0.2514 0.8338
vn 0.2869 0.5186 0.8054
vn 0.3042 0.8240 -0.4781
vn -0.7462 0.5569 -0.3646
vn 0.2723 -0.9583 -0.0869
vn -0.3124 0.9401 0.1367
vn 0.2837 0.9589 -0.0079
vn -0.1082 -0.9852 0.1326
vn -0.5517 0.6104 -0.5683
vn 0.2972 0.4929 0.8177
vn 0.2756 0.9417 -0.1929
vn 0.0037 0.8586 -0.5126
vn 0.0332 -0.9986 0.0419
vn 0.6257 0.6030 0.4948
vn 0.5553 0.1564 0.8168
vn -0.0574 0.0707 -0.9959
vn 0.2415 0.3014 0.9224
vn -0.5058 -0.0592 -0.8606
vn -0.6910 0.0043 -0.7229
vn 0.7980 0.4629 -0.3859
vn 0.5625 0.1868 0.8054
vn -0.6451 0.4360 0.6274
vn -0.6870 0.1854 0.7026
vn 0.7100 0.6807 -0.1805
vn 0.1628 -0.9523 0.2581
vn 0.2541 0.6913 0.6764
vn -0.0249 -0.9294 0.3681
vn 0.7150 0.6703 0.1986
vn 0.2704 0.7796 0.5649
vn 0.5556 -0.8083 0.1947
vn 0.8071 0.5839 -0.0871
vn -0.7228 0.3159 0.6146
vn 0.8880 -0.3660 0.2784
vn -0.7852 -0.2870 0.5486
vn -0.7628 0.0065 0.6466
vn 0.8409 -0.0798 0.5352
vn 0.7763 -0.3375 -0.5324
vn -0.5447 -0.0061 -0.8386
vn -0.5357 -0.0682 -0.8417
vn 0.4566 0.0655 0.8872
vn 0.0962 0.0456 -0.9943
vn 0.4974 0.0883 0.8630
usemtl pedra
s off
f 34/1/1 18/2/1 4/3/1 26/4/1
f 24/5/2 19/6/2 8/7/2 13/8/2
f 33/9/3 20/10/3 6/11/3 28/12/3
f 21/13/4 17/14/4 2/15/4 12/16/4
f 32/17/5 14/18/5 5/19/5 27/20/5
f 29/21/6 12/22/6 2/23/6 26/24/6
f 31/25/7 16/26/7 12/22/7 29/21/7
f 25/27/8 1/28/8 11/29/8 30/30/8
f 23/31/9 21/13/9 12/16/9 16/32/9
f 18/2/10 22/33/10 10/34/10 4/3/10
f 20/10/11 23/35/11 16/26/11 6/11/11
f 28/12/12 6/11/12 16/26/12 31/25/12
f 30/30/13 11/29/13 14/18/13 32/17/13
f 22/36/14 24/37/14 13/38/14 10/39/14
f 39/40/15 41/41/15 24/42/15 22/43/15
f 37/44/16 40/45/16 23/46/16 20/47/16
f 35/48/17 39/49/17 22/33/17 18/2/17
f 40/45/18 38/50/18 21/51/18 23/46/18
f 38/52/19 42/53/19 17/14/19 21/13/19
f 44/54/20 37/55/20 20/56/20 33/57/20
f 41/41/21 36/58/21 19/59/21 24/42/21
f 43/60/22 35/48/22 18/2/22 34/1/22
f 42/61/23 43/60/23 34/1/23 17/62/23
f 36/63/24 44/64/24 33/65/24 19/66/24
f 9/67/25 30/30/25 32/17/25 15/68/25
f 8/69/26 28/12/26 31/25/26 13/38/26
f 3/70/27 25/27/27 30/30/27 9/67/27
f 13/38/28 31/25/28 29/21/28 10/39/28
f 10/39/29 29/21/29 26/24/29 4/71/29
f 15/68/30 32/17/30 27/20/30 7/72/30
f 19/73/31 33/74/31 28/75/31 8/76/31
f 17/14/32 34/77/32 26/78/32 2/15/32
f 7/79/33 27/80/33 44/81/33 36/58/33
f 1/82/34 25/83/34 43/84/34 42/85/34
f 25/83/35 3/86/35 35/87/35 43/84/35
f 15/88/36 7/79/36 36/58/36 41/41/36
f 27/89/37 5/90/37 37/44/37 44/91/37
f 11/92/38 1/93/38 42/94/38 38/50/38
f 14/95/39 11/92/39 38/50/39 40/45/39
f 3/96/40 9/97/40 39/49/40 35/48/40
f 5/90/41 14/95/41 40/45/41 37/44/41
f 9/97/42 15/98/42 41/99/42 39/49/42
